<svg xmlns="http://www.w3.org/2000/svg" width="16.242" height="16.242" viewBox="0 0 16.242 16.242">
  <path id="arrow-alt-circle-right" d="M24.242,16.121a8.121,8.121,0,1,0-8.121,8.121A8.119,8.119,0,0,0,24.242,16.121Zm-14.67,0a6.549,6.549,0,1,1,6.549,6.549A6.547,6.547,0,0,1,9.572,16.121Zm2.358.655v-1.31a.394.394,0,0,1,.393-.393h3.8V12.879a.394.394,0,0,1,.671-.278l3.242,3.242a.393.393,0,0,1,0,.557l-3.242,3.242a.393.393,0,0,1-.671-.278V17.169h-3.8A.394.394,0,0,1,11.929,16.776Z" transform="translate(-8 -8)" fill="#003356"/>
</svg>
