<?xml version="1.0" encoding="utf-8"?>
<!-- Generator: Adobe Illustrator 22.1.0, SVG Export Plug-In . SVG Version: 6.00 Build 0)  -->
<svg version="1.1" id="Layer_1" xmlns="http://www.w3.org/2000/svg" xmlns:xlink="http://www.w3.org/1999/xlink" x="0px" y="0px"
	 viewBox="0 0 24 24" style="enable-background:new 0 0 24 24;" xml:space="preserve">
<g>
	<title>office-file-pdf</title>
	<path d="M3.5,24C2.673,24,2,23.327,2,22.5v-21C2,0.673,2.673,0,3.5,0h12.025C19.094,0,21.999,2.904,22,6.473V22.5
		c0,0.827-0.673,1.5-1.5,1.5H3.5z M3.5,1C3.224,1,3,1.224,3,1.5v21C3,22.776,3.224,23,3.5,23h17c0.276,0,0.5-0.224,0.5-0.5V6.473
		C21,6.32,20.993,6.161,20.978,6H17.5C16.673,6,16,5.327,16,4.5V1.022C15.838,1.007,15.681,1,15.525,1H3.5z M17,4.5
		C17,4.776,17.224,5,17.5,5h3.297C20.282,3.164,18.836,1.717,17,1.203V4.5z"/>
	<path d="M5.479,19.999c-0.276,0-0.5-0.224-0.5-0.5V13.5c0-0.276,0.224-0.5,0.5-0.5h1.5c1.103,0,2,0.897,2,2s-0.897,2-2,2h-1v2.499
		C5.979,19.775,5.755,19.999,5.479,19.999z M6.979,16c0.551,0,1-0.448,1-1s-0.449-1-1-1h-1v2H6.979z"/>
	<path d="M10.479,20c-0.276,0-0.5-0.224-0.5-0.5v-6c0-0.276,0.224-0.5,0.5-0.5c1.93,0,3.5,1.57,3.5,3.5S12.409,20,10.479,20z
		 M10.979,18.949c1.141-0.235,2-1.261,2-2.449s-0.859-2.215-2-2.449V18.949z"/>
	<path d="M15.479,20c-0.276,0-0.5-0.224-0.5-0.5v-5c0-0.827,0.673-1.5,1.5-1.5h2c0.276,0,0.5,0.224,0.5,0.5s-0.224,0.5-0.5,0.5h-2
		c-0.276,0-0.5,0.224-0.5,0.5v1.499h1.5c0.276,0,0.5,0.224,0.5,0.5s-0.224,0.5-0.5,0.5h-1.5V19.5C15.979,19.776,15.755,20,15.479,20
		z"/>
</g>
</svg>
