<?xml version="1.0" encoding="utf-8"?>
<!-- Generator: Adobe Illustrator 22.1.0, SVG Export Plug-In . SVG Version: 6.00 Build 0)  -->
<svg version="1.1" id="Layer_1" xmlns="http://www.w3.org/2000/svg" xmlns:xlink="http://www.w3.org/1999/xlink" x="0px" y="0px"
	 viewBox="0 0 24 24" style="enable-background:new 0 0 24 24;" xml:space="preserve">
<g>
	<title>office-file-xls</title>
	<path d="M3.5,24C2.673,24,2,23.327,2,22.5v-21C2,0.673,2.673,0,3.5,0h12.025C19.094,0,21.999,2.904,22,6.473V22.5
		c0,0.827-0.673,1.5-1.5,1.5H3.5z M3.5,1C3.224,1,3,1.224,3,1.5v21C3,22.776,3.224,23,3.5,23h17c0.276,0,0.5-0.224,0.5-0.5V6.473
		C21,6.32,20.993,6.161,20.978,6H17.5C16.673,6,16,5.327,16,4.5V1.022C15.838,1.007,15.681,1,15.525,1H3.5z M17,4.5
		C17,4.776,17.224,5,17.5,5h3.297C20.282,3.164,18.836,1.717,17,1.203V4.5z"/>
	<path d="M8.5,18.973c-0.191,0-0.362-0.106-0.448-0.276L7,16.591l-1.053,2.105c-0.085,0.17-0.257,0.276-0.448,0.276
		c-0.077,0-0.154-0.018-0.223-0.052c-0.247-0.124-0.348-0.425-0.224-0.671l1.388-2.776l-1.388-2.776
		c-0.06-0.119-0.069-0.255-0.027-0.382c0.042-0.127,0.131-0.229,0.251-0.289c0.069-0.035,0.146-0.053,0.224-0.053
		c0.191,0,0.362,0.106,0.447,0.276L7,14.355l1.053-2.105c0.085-0.171,0.257-0.276,0.447-0.276c0.077,0,0.154,0.018,0.224,0.053
		c0.119,0.06,0.208,0.162,0.251,0.289c0.042,0.127,0.033,0.262-0.027,0.382l-1.388,2.776l1.388,2.776
		c0.123,0.247,0.023,0.548-0.224,0.671C8.654,18.955,8.577,18.973,8.5,18.973z"/>
	<path d="M11.5,18.973c-0.827,0-1.5-0.673-1.5-1.5v-5c0-0.276,0.224-0.5,0.5-0.5s0.5,0.224,0.5,0.5v5c0,0.276,0.224,0.5,0.5,0.5h2
		c0.276,0,0.5,0.224,0.5,0.5s-0.224,0.5-0.5,0.5H11.5z"/>
	<path d="M15.5,18.973c-0.276,0-0.5-0.224-0.5-0.5s0.224-0.5,0.5-0.5h1.694c0.278,0,0.529-0.135,0.677-0.36
		c0.242-0.368,0.14-0.865-0.229-1.108L15.8,15.276c-0.511-0.336-0.814-0.903-0.81-1.517c0.008-0.998,0.803-1.783,1.811-1.786H18.5
		c0.276,0,0.5,0.224,0.5,0.5c0,0.276-0.224,0.5-0.5,0.5h-1.7c-0.443,0.001-0.807,0.357-0.81,0.794
		c-0.002,0.273,0.133,0.525,0.361,0.675l1.843,1.229c0.827,0.544,1.057,1.662,0.512,2.491c-0.334,0.508-0.896,0.811-1.503,0.811
		H15.5z"/>
</g>
</svg>
