<?xml version="1.0" encoding="utf-8"?>
<!-- Generator: Adobe Illustrator 22.1.0, SVG Export Plug-In . SVG Version: 6.00 Build 0)  -->
<svg version="1.1" id="Layer_1" xmlns="http://www.w3.org/2000/svg" xmlns:xlink="http://www.w3.org/1999/xlink" x="0px" y="0px"
	 viewBox="0 0 24 24" style="enable-background:new 0 0 24 24;" xml:space="preserve">
<g>
	<title>office-file-ppt</title>
	<path d="M3.5,24C2.673,24,2,23.327,2,22.5v-21C2,0.673,2.673,0,3.5,0h12.025C19.094,0,21.999,2.904,22,6.473V22.5
		c0,0.827-0.673,1.5-1.5,1.5H3.5z M3.5,1C3.224,1,3,1.224,3,1.5v21C3,22.776,3.224,23,3.5,23h17c0.276,0,0.5-0.224,0.5-0.5V6.473
		C21,6.32,20.993,6.161,20.978,6H17.5C16.673,6,16,5.327,16,4.5V1.022C15.838,1.007,15.681,1,15.525,1H3.5z M17,4.5
		C17,4.776,17.224,5,17.5,5h3.297C20.282,3.164,18.836,1.717,17,1.203V4.5z"/>
	<path d="M5.5,18.999c-0.276,0-0.5-0.224-0.5-0.5V12.5C5,12.224,5.224,12,5.5,12H7c1.103,0,2,0.897,2,2s-0.897,2-2,2H6v2.499
		C6,18.775,5.776,18.999,5.5,18.999z M7,15c0.551,0,1-0.448,1-1s-0.449-1-1-1H6v2H7z"/>
	<path d="M10.5,18.999c-0.276,0-0.5-0.224-0.5-0.5V12.5c0-0.276,0.224-0.5,0.5-0.5H12c1.103,0,2,0.897,2,2s-0.897,2-2,2h-1v2.499
		C11,18.775,10.776,18.999,10.5,18.999z M12,15c0.552,0,1-0.448,1-1s-0.448-1-1-1h-1L12,15z"/>
	<path d="M17.5,18.999c-0.276,0-0.5-0.224-0.5-0.5v-5.5h-1.5c-0.276,0-0.5-0.224-0.5-0.5c0-0.276,0.224-0.5,0.5-0.5h4
		c0.276,0,0.5,0.224,0.5,0.5c0,0.276-0.224,0.5-0.5,0.5H18v5.5C18,18.775,17.776,18.999,17.5,18.999z"/>
</g>
</svg>
